<?xml version="1.0" encoding="utf-8"?>
<!-- Generator: Adobe Illustrator 27.0.0, SVG Export Plug-In . SVG Version: 6.00 Build 0)  -->
<svg version="1.1" id="Layer_1" xmlns="http://www.w3.org/2000/svg" xmlns:xlink="http://www.w3.org/1999/xlink" x="0px" y="0px"
	 viewBox="0 0 400.8 400.8" style="enable-background:new 0 0 400.8 400.8;" xml:space="preserve">
<style type="text/css">
	
		.st0{fill:url(#SVGID_1_);stroke:url(#SVGID_00000121258991879626687570000004621270594586723501_);stroke-width:8;stroke-miterlimit:10;}
</style>
<g>
	<g>
		<radialGradient id="SVGID_1_" cx="200.3802" cy="200.3814" r="196.3808" gradientUnits="userSpaceOnUse">
			<stop  offset="0" style="stop-color:#F2E5C8"/>
			<stop  offset="0.1927" style="stop-color:#D8B57C"/>
			<stop  offset="0.3309" style="stop-color:#C8974C"/>
			<stop  offset="0.3994" style="stop-color:#C28B3A"/>
		</radialGradient>
		
			<radialGradient id="SVGID_00000012457360839658768160000008286478412904288393_" cx="200.3802" cy="200.3814" r="200.3808" gradientUnits="userSpaceOnUse">
			<stop  offset="0" style="stop-color:#F2E5C8"/>
			<stop  offset="0.1927" style="stop-color:#D8B57C"/>
			<stop  offset="0.3309" style="stop-color:#C8974C"/>
			<stop  offset="0.3994" style="stop-color:#C28B3A"/>
		</radialGradient>
		
			<path style="fill:url(#SVGID_1_);stroke:url(#SVGID_00000012457360839658768160000008286478412904288393_);stroke-width:8;stroke-miterlimit:10;" d="
			M178.9,5.2c39.7-4.4,80.8,3.6,115.8,23c32.2,17.7,59.3,44.6,77.2,76.6c19.1,34,27.6,73.8,24.1,112.6c-3.2,39.2-18.9,77.3-44,107.6
			c-21.4,26.1-49.6,46.5-81.1,58.6c-39.1,15.2-83.2,17.2-123.6,5.8c-33.9-9.4-65-28.3-89.2-53.9c-24.9-26-42.4-59-49.8-94.3
			c-8.5-39.7-4.3-82,12-119.2C37,83.6,66.4,50.9,102.8,30C126.1,16.6,152.2,8.1,178.9,5.2z M102,50.1C72,69.7,48.1,98.4,34.4,131.5
			c-14.8,35.2-17.7,75.1-8.5,112.1c7.6,31.1,23.9,59.9,46.3,82.7c3.8-5,7.7-9.9,11.4-14.9c14.5,8.8,32,11.6,48.6,9.6
			c12.2-1.4,23.8-7.4,32-16.7c12.2-13.2,18.1-30.5,24.9-46.8c22.2-54,44.8-107.9,67.1-161.9c9.2-0.6,18.4,0.3,27.5-0.1
			c-24.1,58-47.6,116.1-71.7,174.1c-4.4,11.2-9.5,22.3-16.3,32.2c-10.3,15.4-24.5,28.6-41.5,36.3c-18.7,8.6-40.1,10.2-60.3,7
			c34.8,25.9,79.3,38.3,122.5,34.3c31.9-2.8,62.9-14.4,88.8-33.1c27.8-20,49.7-48,62.2-79.8c13.7-34.2,16.3-72.7,7.5-108.6
			c-8.2-34-26.7-65.5-52.5-89.1c-1.2,3-2.4,6-3.7,9c-24.3-0.2-48.6-0.1-72.8-0.1c-30.4,74.6-61.4,148.9-92.3,223.3
			c-9.1,0-18.2,0-27.4,0c16.8-40.2,33.1-80.7,49.8-120.9c14-34.2,28.4-68.3,42.3-102.5c-24.4,0-48.7,0-73-0.1
			c3.2-7.7,6.3-15.4,9.6-23.1c50.1,0,100.1,0.2,150.2,0.1c-30.2-22-67.5-34-104.9-33.9C165.6,20.6,131,31,102,50.1z"/>
	</g>
</g>
</svg>
